{"asset":{"version":"2.0","generator":"Microsoft GLTF Exporter 2.4.2.8"},"accessors":[{"bufferView":0,"componentType":5123,"count":6024,"type":"SCALAR","byteOffset":0},{"bufferView":1,"componentType":5126,"count":1186,"type":"VEC3","max":[9.117790222167969,10.511371612548828,1.6126744747161865],"min":[-6.442225456237793,0,-1.6126737594604492],"byteOffset":0},{"bufferView":2,"componentType":5126,"count":1186,"type":"VEC3","byteOffset":0},{"bufferView":3,"componentType":5126,"count":1186,"type":"VEC2","byteOffset":0}],"bufferViews":[{"buffer":0,"byteOffset":0,"byteLength":12048,"target":34963},{"buffer":0,"byteOffset":12048,"byteLength":14232,"target":34962,"byteStride":12},{"buffer":0,"byteOffset":26280,"byteLength":14232,"target":34962,"byteStride":12},{"buffer":0,"byteOffset":40512,"byteLength":9488,"target":34962,"byteStride":8},{"buffer":0,"byteOffset":50000,"byteLength":21320},{"buffer":0,"byteOffset":71320,"byteLength":1433528},{"buffer":0,"byteOffset":1504848,"byteLength":21320},{"buffer":0,"byteOffset":1526168,"byteLength":1189366}],"buffers":[{"name":"output","byteLength":2715536,"uri":"data:application/octet-stream;base64,"}],"images":[{"bufferView":4,"mimeType":"image/png"},{"bufferView":5,"mimeType":"image/png"},{"bufferView":6,"mimeType":"image/png"},{"bufferView":7,"mimeType":"image/png"}],"materials":[{"pbrMetallicRoughness":{"baseColorTexture":{"index":2,"texCoord":0},"metallicRoughnessTexture":{"index":3,"texCoord":0},"baseColorFactor":[1,1,1,1],"metallicFactor":1,"roughnessFactor":1},"alphaMode":"MASK","name":"96","doubleSided":true,"extensions":{"KHR_materials_pbrSpecularGlossiness":{"diffuseTexture":{"index":0},"specularGlossinessTexture":{"index":1}}},"extras":{"MSFT_sRGBFactors":false},"emissiveFactor":[0,0,0],"alphaCutoff":0.5}],"meshes":[{"name":"mesh_id31","primitives":[{"attributes":{"POSITION":1,"NORMAL":2,"TEXCOORD_0":3},"indices":0,"material":0,"mode":4}]}],"nodes":[{"children":[1],"name":"root"},{"translation":[-0.06024527922272682,-0.13634461164474487,0.2754765748977661],"scale":[0.020827775821089745,0.020827775821089745,0.020827775821089745],"mesh":0,"name":"node_id30","rotation":[0,0,0,1]}],"samplers":[{"minFilter":9985,"wrapS":10497,"wrapT":10497}],"scenes":[{"nodes":[0]}],"scene":0,"textures":[{"name":"texture7","sampler":0,"source":0},{"name":"texture9","sampler":0,"source":1},{"name":"96_bc","sampler":0,"source":2},{"name":"96_mr","sampler":0,"source":3}],"extensionsUsed":["KHR_materials_pbrSpecularGlossiness"]}
